<mxfile host="app.diagrams.net" modified="2024-07-27T04:27:24.411Z" agent="Mozilla/5.0 (Windows NT 10.0; Win64; x64) AppleWebKit/537.36 (KHTML, like Gecko) Chrome/126.0.0.0 Safari/537.36" etag="f8cHHw-f9WUEEt73DoYF" version="24.3.1" type="device" pages="4">
  <diagram name="Page-1" id="3O1lCG0v0WyB4sLVaDBU">
    <mxGraphModel dx="970" dy="567" grid="1" gridSize="10" guides="1" tooltips="1" connect="1" arrows="1" fold="1" page="1" pageScale="1" pageWidth="850" pageHeight="1100" math="0" shadow="0">
      <root>
        <mxCell id="0" />
        <mxCell id="1" parent="0" />
        <mxCell id="_2u9XBSXlXysNpFQJzrX-1" value="" style="endArrow=classic;html=1;rounded=0;exitX=1;exitY=0.5;exitDx=0;exitDy=0;" edge="1" parent="1" source="_2u9XBSXlXysNpFQJzrX-2" target="_2u9XBSXlXysNpFQJzrX-4">
          <mxGeometry width="50" height="50" relative="1" as="geometry">
            <mxPoint x="390" y="460" as="sourcePoint" />
            <mxPoint x="400" y="470" as="targetPoint" />
          </mxGeometry>
        </mxCell>
        <mxCell id="_2u9XBSXlXysNpFQJzrX-2" value="" style="ellipse;whiteSpace=wrap;html=1;" vertex="1" parent="1">
          <mxGeometry x="250" y="430" width="80" height="80" as="geometry" />
        </mxCell>
        <mxCell id="_2u9XBSXlXysNpFQJzrX-3" value="" style="ellipse;whiteSpace=wrap;html=1;" vertex="1" parent="1">
          <mxGeometry x="425" y="530" width="80" height="80" as="geometry" />
        </mxCell>
        <mxCell id="_2u9XBSXlXysNpFQJzrX-4" value="" style="ellipse;whiteSpace=wrap;html=1;" vertex="1" parent="1">
          <mxGeometry x="425" y="430" width="80" height="80" as="geometry" />
        </mxCell>
        <mxCell id="_2u9XBSXlXysNpFQJzrX-5" value="" style="ellipse;whiteSpace=wrap;html=1;" vertex="1" parent="1">
          <mxGeometry x="425" y="330" width="80" height="80" as="geometry" />
        </mxCell>
        <mxCell id="_2u9XBSXlXysNpFQJzrX-6" value="" style="ellipse;whiteSpace=wrap;html=1;" vertex="1" parent="1">
          <mxGeometry x="580" y="580" width="80" height="80" as="geometry" />
        </mxCell>
        <mxCell id="_2u9XBSXlXysNpFQJzrX-7" value="" style="endArrow=classic;html=1;rounded=0;exitX=0.889;exitY=0.199;exitDx=0;exitDy=0;exitPerimeter=0;entryX=0.007;entryY=0.529;entryDx=0;entryDy=0;entryPerimeter=0;" edge="1" parent="1" source="_2u9XBSXlXysNpFQJzrX-2" target="_2u9XBSXlXysNpFQJzrX-5">
          <mxGeometry width="50" height="50" relative="1" as="geometry">
            <mxPoint x="340" y="480" as="sourcePoint" />
            <mxPoint x="435" y="480" as="targetPoint" />
          </mxGeometry>
        </mxCell>
        <mxCell id="_2u9XBSXlXysNpFQJzrX-9" value="" style="endArrow=classic;html=1;rounded=0;exitX=0.906;exitY=0.821;exitDx=0;exitDy=0;exitPerimeter=0;entryX=0;entryY=0.5;entryDx=0;entryDy=0;" edge="1" parent="1" source="_2u9XBSXlXysNpFQJzrX-2" target="_2u9XBSXlXysNpFQJzrX-3">
          <mxGeometry width="50" height="50" relative="1" as="geometry">
            <mxPoint x="331" y="456" as="sourcePoint" />
            <mxPoint x="436" y="382" as="targetPoint" />
          </mxGeometry>
        </mxCell>
        <mxCell id="_2u9XBSXlXysNpFQJzrX-10" value="&lt;font style=&quot;font-size: 9px;&quot;&gt;obstacle&lt;/font&gt;" style="rounded=0;whiteSpace=wrap;html=1;" vertex="1" parent="1">
          <mxGeometry x="360" y="440" width="40" height="60" as="geometry" />
        </mxCell>
        <mxCell id="_2u9XBSXlXysNpFQJzrX-11" value="Wagon: has abilities to traverse normal obstacles" style="rounded=0;whiteSpace=wrap;html=1;" vertex="1" parent="1">
          <mxGeometry x="220" y="340" width="120" height="60" as="geometry" />
        </mxCell>
        <mxCell id="_2u9XBSXlXysNpFQJzrX-14" value="" style="curved=1;endArrow=classic;html=1;rounded=0;exitX=0.5;exitY=1;exitDx=0;exitDy=0;entryX=0.5;entryY=1;entryDx=0;entryDy=0;" edge="1" parent="1" source="_2u9XBSXlXysNpFQJzrX-2" target="_2u9XBSXlXysNpFQJzrX-6">
          <mxGeometry width="50" height="50" relative="1" as="geometry">
            <mxPoint x="360" y="630" as="sourcePoint" />
            <mxPoint x="640" y="640" as="targetPoint" />
            <Array as="points">
              <mxPoint x="330" y="640" />
              <mxPoint x="480" y="690" />
              <mxPoint x="580" y="650" />
            </Array>
          </mxGeometry>
        </mxCell>
        <mxCell id="_2u9XBSXlXysNpFQJzrX-15" value="Special obstacle(s)" style="rounded=0;whiteSpace=wrap;html=1;" vertex="1" parent="1">
          <mxGeometry x="420" y="640" width="120" height="60" as="geometry" />
        </mxCell>
        <mxCell id="_2u9XBSXlXysNpFQJzrX-17" value="..." style="rounded=0;whiteSpace=wrap;html=1;" vertex="1" parent="1">
          <mxGeometry x="550" y="440" width="120" height="60" as="geometry" />
        </mxCell>
        <mxCell id="_2u9XBSXlXysNpFQJzrX-18" value="Boss" style="ellipse;whiteSpace=wrap;html=1;" vertex="1" parent="1">
          <mxGeometry x="760" y="430" width="80" height="80" as="geometry" />
        </mxCell>
        <mxCell id="_2u9XBSXlXysNpFQJzrX-19" value="" style="endArrow=classic;html=1;rounded=0;exitX=1;exitY=0.5;exitDx=0;exitDy=0;" edge="1" parent="1" source="_2u9XBSXlXysNpFQJzrX-17" target="_2u9XBSXlXysNpFQJzrX-18">
          <mxGeometry width="50" height="50" relative="1" as="geometry">
            <mxPoint x="331" y="456" as="sourcePoint" />
            <mxPoint x="436" y="382" as="targetPoint" />
          </mxGeometry>
        </mxCell>
      </root>
    </mxGraphModel>
  </diagram>
  <diagram id="f2Y9GhF0C8yeDWzAlpQS" name="Page-2">
    <mxGraphModel dx="819" dy="422" grid="1" gridSize="10" guides="1" tooltips="1" connect="1" arrows="1" fold="1" page="1" pageScale="1" pageWidth="850" pageHeight="1100" math="0" shadow="0">
      <root>
        <mxCell id="0" />
        <mxCell id="1" parent="0" />
        <mxCell id="Sn_jGQKHZuKoYZzTLb5B-1" value="Wagon" style="whiteSpace=wrap;html=1;aspect=fixed;" vertex="1" parent="1">
          <mxGeometry x="60" y="500" width="100" height="100" as="geometry" />
        </mxCell>
        <mxCell id="Sn_jGQKHZuKoYZzTLb5B-2" value="You&lt;div&gt;&lt;br&gt;&lt;/div&gt;" style="rounded=0;whiteSpace=wrap;html=1;" vertex="1" parent="1">
          <mxGeometry x="230" y="570" width="40" height="60" as="geometry" />
        </mxCell>
        <mxCell id="Sn_jGQKHZuKoYZzTLb5B-3" value="Hand of &quot;cards&quot;" style="rounded=1;whiteSpace=wrap;html=1;" vertex="1" parent="1">
          <mxGeometry x="160" y="670" width="530" height="100" as="geometry" />
        </mxCell>
        <mxCell id="Sn_jGQKHZuKoYZzTLb5B-4" value="Monster Area" style="rounded=0;whiteSpace=wrap;html=1;" vertex="1" parent="1">
          <mxGeometry x="510" y="485" width="230" height="130" as="geometry" />
        </mxCell>
        <mxCell id="Sn_jGQKHZuKoYZzTLb5B-5" value="Turn Indicator" style="rounded=1;whiteSpace=wrap;html=1;" vertex="1" parent="1">
          <mxGeometry x="365" y="400" width="120" height="60" as="geometry" />
        </mxCell>
      </root>
    </mxGraphModel>
  </diagram>
  <diagram id="wd2ZlrzOzsIt6efHcIb9" name="Page-3">
    <mxGraphModel dx="1687" dy="868" grid="1" gridSize="10" guides="1" tooltips="1" connect="1" arrows="1" fold="1" page="1" pageScale="1" pageWidth="850" pageHeight="1100" math="0" shadow="0">
      <root>
        <mxCell id="0" />
        <mxCell id="1" parent="0" />
        <mxCell id="GiMIYr3okbSH6DvMjZlJ-1" value="&lt;p style=&quot;line-height: 120%;&quot;&gt;Dead monster corpses&lt;/p&gt;" style="whiteSpace=wrap;html=1;aspect=fixed;align=center;" vertex="1" parent="1">
          <mxGeometry x="130" y="220" width="540" height="540" as="geometry" />
        </mxCell>
        <mxCell id="GiMIYr3okbSH6DvMjZlJ-2" value="Harvest Screen" style="text;html=1;align=center;verticalAlign=middle;resizable=0;points=[];autosize=1;strokeColor=none;fillColor=none;" vertex="1" parent="1">
          <mxGeometry x="345" y="120" width="110" height="30" as="geometry" />
        </mxCell>
        <mxCell id="GiMIYr3okbSH6DvMjZlJ-3" value="Horns" style="rounded=0;whiteSpace=wrap;html=1;" vertex="1" parent="1">
          <mxGeometry x="357.5" y="280" width="85" height="90" as="geometry" />
        </mxCell>
        <mxCell id="GiMIYr3okbSH6DvMjZlJ-4" value="Contextual Consumable Choice" style="rounded=1;whiteSpace=wrap;html=1;" vertex="1" parent="1">
          <mxGeometry x="80" y="790" width="510" height="140" as="geometry" />
        </mxCell>
        <mxCell id="GiMIYr3okbSH6DvMjZlJ-5" value="" style="rounded=0;whiteSpace=wrap;html=1;" vertex="1" parent="1">
          <mxGeometry x="170" y="390" width="90" height="90" as="geometry" />
        </mxCell>
        <mxCell id="GiMIYr3okbSH6DvMjZlJ-7" value="(Sell)" style="rounded=0;whiteSpace=wrap;html=1;" vertex="1" parent="1">
          <mxGeometry x="620" y="790" width="150" height="140" as="geometry" />
        </mxCell>
      </root>
    </mxGraphModel>
  </diagram>
  <diagram id="HaLk_J78JIMt7kfGJR-F" name="Page-4">
    <mxGraphModel dx="1434" dy="738" grid="1" gridSize="10" guides="1" tooltips="1" connect="1" arrows="1" fold="1" page="1" pageScale="1" pageWidth="850" pageHeight="1100" math="0" shadow="0">
      <root>
        <mxCell id="0" />
        <mxCell id="1" parent="0" />
      </root>
    </mxGraphModel>
  </diagram>
</mxfile>
